<svg data-v-0dd9719b="" version="1.0" xmlns="http://www.w3.org/2000/svg" xmlns:xlink="http://www.w3.org/1999/xlink" width="100%" height="100%" viewBox="0 0 340.000000 250.000000" preserveAspectRatio="xMidYMid meet" color-interpolation-filters="sRGB" style="margin: auto;"> <rect data-v-0dd9719b="" x="0" y="0" width="100%" height="100%" fill="#fff" fill-opacity="1" class="background"></rect> <rect data-v-0dd9719b="" x="0" y="0" width="100%" height="100%" fill="url(#watermark)" fill-opacity="1" class="watermarklayer"></rect> <g data-v-0dd9719b="" fill="#00a5a9" class="icon-text-wrapper icon-svg-group iconsvg" transform="translate(48.63999938964844,96.98356437683105)"><g class="iconsvg-imagesvg" transform="translate(0,0)"><g><rect fill="#00a5a9" fill-opacity="0" stroke-width="2" x="0" y="0" width="60" height="56.032872618602916" class="image-rect"></rect> <svg x="0" y="0" width="60" height="56.032872618602916" filtersec="colorsb8397765441" class="image-svg-svg primary" style="overflow: visible;"><svg xmlns="http://www.w3.org/2000/svg" viewBox="13.677627563476562 89.5285873413086 1476.3446044921875 1378.7261962890625"><g fill-rule="evenodd" clip-rule="evenodd"><path fill="#F08D00" d="M358.406 181.943C550.705 70.924 774.3 63.149 965.028 141.368l-57.756 33.342c-167.65-56.601-357.884-43.599-523.129 51.804-305.012 176.1-409.561 566.267-233.459 871.279 176.096 305.007 566.264 409.55 871.276 233.453 185.105-106.868 296.369-292.59 315.869-490.267l53.858-31.089c-10.432 226.913-132.717 443.941-343.995 565.929-329.625 190.309-751.274 77.33-941.577-252.3-190.313-329.618-77.328-751.268 252.291-941.576zm699.421 5.909l-51.649 29.82a637.01 637.01 0 0 1 84.719 54.722l47.961-27.691a686.894 686.894 0 0 0-81.031-56.851zm147.339 118.633l-45.885 26.491c21.022 21.533 40.692 44.789 58.827 69.669l44.813-25.873a687.636 687.636 0 0 0-57.755-70.287zm103.789 143.775l-44.605 25.751a639.248 639.248 0 0 1 37.178 82.169l45.185-26.085a690.8 690.8 0 0 0-37.758-81.835zm64.195 166.634l-46.629 26.921a633.982 633.982 0 0 1 13.22 95.999l49.409-28.525a685.037 685.037 0 0 0-16-94.395z"></path><path fill="#00A5A9" d="M413.555 277.454c69.461-40.106 143.791-64.161 218.694-73.335-29.125 38.673-53.036 80.618-71.49 124.693L169.17 554.897c47.212-112.791 130.338-211.603 244.385-277.443zm630.931-181.966L540.023 386.74 230.588 565.392l-82.155 47.433c-16.611 55.521-24.915 113.473-24.395 171.828l391.585-226.088a581.895 581.895 0 0 1 2.5-59.114L1153.08 132.86a582.853 582.853 0 0 0-108.594-37.372zm198.664 89.001L517.768 603.288 318.795 718.167 126.178 829.375a574.869 574.869 0 0 0 30.16 140.325l391.59-226.085a575.151 575.151 0 0 1-14.774-49.142l781.316-451.095a576.018 576.018 0 0 0-71.32-58.889zm131.619 127.706L562.554 781.127l-155.556 89.811-236.034 136.274a581.113 581.113 0 0 0 30.659 61.169c11.552 20.015 24.156 39.053 37.64 57.135l391.596-226.085a589.923 589.923 0 0 1-28.212-41.383l818.67-472.66c-2.883-5.38-1.587-3.39-8.903-16.059-7.316-12.669-24.156-39.047-37.645-57.134zm82.93 155.819l-801.665 462.84-160.828 92.858-230.763 133.228a574.66 574.66 0 0 0 106.449 96.282l391.59-226.085a576.151 576.151 0 0 1-42.758-32.99l760.946-439.333a574.74 574.74 0 0 0-22.971-86.8zm32.3 185.047a580.476 580.476 0 0 1-8.638 105.055l-585.923 338.286a584.178 584.178 0 0 0 65.703 19.738l-391.59 226.085c-56.381-13.378-110.733-35.155-160.998-64.789l174.854-100.954 216.736-125.131 689.856-398.29zm-324.587 474.515c-45.396 60.283-103.396 112.623-172.863 152.732-114.035 65.835-241.178 88.43-362.46 72.923l391.591-226.085c47.397 6.062 95.681 6.323 143.732.43z"></path></g></svg></svg> <!----></g></g> <g transform="translate(67,14.501435279846191)"><g data-gra="path-name" fill-rule="" class="tp-name iconsvg-namesvg"><g transform="scale(1)"><g><path d="M2.24 0L8.99 0 8.99-6.41 11.4-6.41C18.45-6.41 21.13-8.55 21.13-15.16 21.13-21.23 18.82-23.54 11.4-23.54L2.24-23.54ZM8.99-11.77L8.99-18.35 10.41-18.35C13.16-18.35 14.25-17.6 14.25-14.99 14.25-12.52 13.23-11.77 10.41-11.77ZM35.82-18.65C33.65-18.65 31.98-18.04 30.9-15.13L30.9-18.32 24.45-18.32 24.45 0 30.9 0 30.9-9.56C31.17-12.11 33.41-12.92 35.55-12.92L36.05-12.92 36.19-18.65ZM46.57-18.62C45.25-18.62 43.28-18.55 41.89-18.32L41.89-12.92C43.08-13.13 44.33-13.23 45.65-13.23 48.33-13.23 49.01-12.96 49.11-11.09L45.35-11.09C40.02-11.09 37.61-9.53 37.61-5.33 37.61-1.39 40.02 0.34 43.86 0.34 47.08 0.34 48.64-0.78 49.18-1.7L49.69 0 55.52 0 55.52-12.45C55.52-16.72 52.98-18.62 46.57-18.62ZM45.89-4.44C44.57-4.44 43.86-4.68 43.86-5.63 43.86-6.72 44.5-7.02 46.53-7.02L49.11-7.02 49.11-5.6C48.6-4.95 47.48-4.44 45.89-4.44ZM76.76-10.34C76.76-15.94 74.99-18.65 68.48-18.65 62.41-18.65 58.88-16.69 58.88-9.16 58.88-1.63 62.41 0.34 68.17 0.34 71.8 0.34 74.72-0.34 75.84-1.12L75.84-5.87C74.75-5.22 71.94-4.54 69.46-4.54 67.12-4.54 65.66-5.19 65.29-6.78L76.55-7.46C76.65-7.73 76.76-8.85 76.76-10.34ZM65.26-11.16C65.39-13.43 66.34-13.94 68.51-13.94 70.55-13.94 71.06-12.99 71.06-11.6ZM85.44 0.2C90.36 0.2 93.27-1.19 93.27-5.97 93.27-9.26 92.56-10.45 88.76-11.53 85.88-12.35 85.4-12.31 85.4-12.99 85.4-13.67 85.64-13.94 87.54-13.94 89.2-13.94 91.44-13.53 92.43-13.26L92.63-18.04C91.54-18.42 89.47-18.65 87.27-18.65 81.16-18.65 79.37-16.65 79.37-12.82 79.37-9.7 80.25-8.65 84.05-7.67 86.59-7.02 87.1-6.78 87.1-5.83 87.1-4.85 86.59-4.71 85-4.71 83.34-4.71 81.4-5.02 79.23-5.66L79.23-0.37C81.37 0.07 83.1 0.2 85.44 0.2ZM99.79-20.21C102.77-20.21 103.28-20.52 103.28-23.5 103.28-26.46 102.77-26.69 99.79-26.69 96.83-26.69 96.29-26.46 96.29-23.5 96.29-20.52 96.83-20.21 99.79-20.21ZM96.56 0L103.01 0 103.01-18.32 96.56-18.32ZM118.37-25.78L118.37-16.48C117.69-17.81 116.3-18.65 113.15-18.65 107.35-18.65 106.03-14.52 106.03-9.16 106.03-3.19 107.35 0.34 113.15 0.34 116.47 0.34 117.73-0.71 118.44-2.2L118.81 0 124.75 0 124.75-25.78ZM115.56-4.34C112.95-4.34 112.54-6.17 112.54-9.16 112.54-11.97 112.95-14.04 115.56-14.04 118.1-14.04 118.68-12.11 118.68-9.16 118.68-5.94 118.13-4.34 115.56-4.34ZM131.87-20.21C134.86-20.21 135.36-20.52 135.36-23.5 135.36-26.46 134.86-26.69 131.87-26.69 128.92-26.69 128.38-26.46 128.38-23.5 128.38-20.52 128.92-20.21 131.87-20.21ZM128.65 0L135.09 0 135.09-18.32 128.65-18.32ZM146.93-18.62C145.61-18.62 143.64-18.55 142.25-18.32L142.25-12.92C143.44-13.13 144.69-13.23 146.01-13.23 148.69-13.23 149.37-12.96 149.47-11.09L145.71-11.09C140.38-11.09 137.98-9.53 137.98-5.33 137.98-1.39 140.38 0.34 144.22 0.34 147.44 0.34 149-0.78 149.54-1.7L150.05 0 155.88 0 155.88-12.45C155.88-16.72 153.34-18.62 146.93-18.62ZM146.25-4.44C144.93-4.44 144.22-4.68 144.22-5.63 144.22-6.72 144.86-7.02 146.9-7.02L149.47-7.02 149.47-5.6C148.97-4.95 147.85-4.44 146.25-4.44ZM171.59-25.78L171.59-16.48C170.91-17.81 169.52-18.65 166.37-18.65 160.57-18.65 159.24-14.52 159.24-9.16 159.24-3.19 160.57 0.34 166.37 0.34 169.69 0.34 170.94-0.71 171.66-2.2L172.03 0 177.96 0 177.96-25.78ZM168.77-4.34C166.16-4.34 165.75-6.17 165.75-9.16 165.75-11.97 166.16-14.04 168.77-14.04 171.32-14.04 171.89-12.11 171.89-9.16 171.89-5.94 171.35-4.34 168.77-4.34Z" transform="translate(-2.240000009536743, 26.690000534057617)"></path></g> <!----> <!----> <!----> <!----> <!----> <!----> <!----></g></g> <!----></g></g><defs v-gra="od"></defs></svg>